HIERARCHY
ROOT Hips
{
	OFFSET 0.000000 71.427986 0.000000
	CHANNELS 6 Xposition Yposition Zposition Xrotation Yrotation Zrotation
	JOINT Pelvis
	{
		OFFSET 0.000000 0.000000 0.000000
		CHANNELS 3 Xrotation Yrotation Zrotation
		JOINT LeftUpLeg
		{
			OFFSET 6.797100 -2.508499 -1.318700
			CHANNELS 3 Xrotation Yrotation Zrotation
			JOINT LeftLeg
			{
				OFFSET 0.069008 -29.241863 0.690200
				CHANNELS 3 Xrotation Yrotation Zrotation
				JOINT LeftFoot
				{
					OFFSET -0.069008 -29.568123 -0.266800
					CHANNELS 3 Xrotation Yrotation Zrotation
					JOINT LeftToeBase
					{
						OFFSET 3.145500 -8.631000 16.059900
						CHANNELS 3 Xrotation Yrotation Zrotation
						End Site
						{
							OFFSET 0.000000 18.501587 0.000000
						}
					}
				}
			}
			JOINT Left_ShortSleeve
			{
				OFFSET 0.265923 -10.480953 1.153800
				CHANNELS 3 Xrotation Yrotation Zrotation
				End Site
				{
					OFFSET 1.725763 19.823879 0.000000
				}
			}
		}
		JOINT RightUpLeg
		{
			OFFSET -6.797100 -2.508499 -1.318700
			CHANNELS 3 Xrotation Yrotation Zrotation
			JOINT RightLeg
			{
				OFFSET -0.082453 -29.241932 0.688000
				CHANNELS 3 Xrotation Yrotation Zrotation
				JOINT RightFoot
				{
					OFFSET 0.082453 -29.568058 -0.264600
					CHANNELS 3 Xrotation Yrotation Zrotation
					JOINT RightToeBase
					{
						OFFSET -3.115300 -8.682800 16.113400
						CHANNELS 3 Xrotation Yrotation Zrotation
						End Site
						{
							OFFSET 0.000000 18.567114 0.000000
						}
					}
				}
			}
			JOINT Right_ShortSleeve
			{
				OFFSET -0.265923 -10.480953 1.153800
				CHANNELS 3 Xrotation Yrotation Zrotation
				End Site
				{
					OFFSET -1.725766 19.823910 0.000000
				}
			}
		}
	}
	JOINT Spine
	{
		OFFSET 0.000000 13.368103 0.470500
		CHANNELS 3 Xrotation Yrotation Zrotation
		JOINT Spine1
		{
			OFFSET 0.147000 13.837402 0.538800
			CHANNELS 3 Xrotation Yrotation Zrotation
			JOINT Spine2
			{
				OFFSET 0.168000 16.242897 -1.435500
				CHANNELS 3 Xrotation Yrotation Zrotation
				JOINT Neck
				{
					OFFSET 0.217200 18.631500 -1.679100
					CHANNELS 3 Xrotation Yrotation Zrotation
					JOINT Head
					{
						OFFSET 0.000000 6.599396 1.385900
						CHANNELS 3 Xrotation Yrotation Zrotation
						JOINT Hat
						{
							OFFSET -0.532200 27.220596 -10.096100
							CHANNELS 3 Xrotation Yrotation Zrotation
							End Site
							{
								OFFSET 0.000000 22.029861 0.000000
							}
						}
						JOINT HairD
						{
							OFFSET -10.777400 17.437393 -1.325900
							CHANNELS 3 Xrotation Yrotation Zrotation
							JOINT HairD1
							{
								OFFSET -3.290299 -11.051193 1.062200
								CHANNELS 3 Xrotation Yrotation Zrotation
								End Site
								{
									OFFSET 0.000000 11.579437 0.000000
								}
							}
						}
						JOINT HairB
						{
							OFFSET -10.777400 17.437393 1.467900
							CHANNELS 3 Xrotation Yrotation Zrotation
							JOINT HairB1
							{
								OFFSET -1.561200 -12.956299 3.590200
								CHANNELS 3 Xrotation Yrotation Zrotation
								End Site
								{
									OFFSET 0.000000 13.534866 0.000000
								}
							}
						}
						JOINT HairA
						{
							OFFSET 9.713100 17.437393 1.467900
							CHANNELS 3 Xrotation Yrotation Zrotation
							JOINT HairA1
							{
								OFFSET 1.561200 -12.956299 3.590200
								CHANNELS 3 Xrotation Yrotation Zrotation
								End Site
								{
									OFFSET 0.000000 13.534866 0.000000
								}
							}
						}
						JOINT HairC
						{
							OFFSET 9.713100 17.437393 -1.325900
							CHANNELS 3 Xrotation Yrotation Zrotation
							JOINT HairC1
							{
								OFFSET 3.290300 -11.051193 1.062200
								CHANNELS 3 Xrotation Yrotation Zrotation
								End Site
								{
									OFFSET 0.000000 11.579437 0.000000
								}
							}
						}
					}
				}
				JOINT LeftShoulder
				{
					OFFSET 5.101800 15.108002 -2.763700
					CHANNELS 3 Xrotation Yrotation Zrotation
					JOINT LeftArm
					{
						OFFSET 9.825497 2.506317 -1.597400
						CHANNELS 3 Xrotation Yrotation Zrotation
						JOINT LeftForeArm
						{
							OFFSET 21.966244 0.000000 0.000000
							CHANNELS 3 Xrotation Yrotation Zrotation
							JOINT LeftHand
							{
								OFFSET 33.879036 0.000000 0.000000
								CHANNELS 3 Xrotation Yrotation Zrotation
								JOINT LeftHandThumb1
								{
									OFFSET 6.715286 -2.359680 3.363841
									CHANNELS 3 Xrotation Yrotation Zrotation
									JOINT LeftHandThumb2
									{
										OFFSET 2.507072 -1.447464 1.447461
										CHANNELS 3 Xrotation Yrotation Zrotation
										JOINT LeftHandThumb3
										{
											OFFSET 2.898338 -1.673355 1.673357
											CHANNELS 3 Xrotation Yrotation Zrotation
											End Site
											{
												OFFSET -0.295959 3.727692 -0.131651
											}
										}
									}
								}
								JOINT LeftHandIndex1
								{
									OFFSET 14.190811 -0.254547 3.840278
									CHANNELS 3 Xrotation Yrotation Zrotation
									JOINT LeftHandIndex2
									{
										OFFSET 3.551727 0.000000 -0.000000
										CHANNELS 3 Xrotation Yrotation Zrotation
										JOINT LeftHandIndex3
										{
											OFFSET 2.894196 0.000000 0.000000
											CHANNELS 3 Xrotation Yrotation Zrotation
											End Site
											{
												OFFSET -1.000603 2.690872 0.366626
											}
										}
									}
								}
								JOINT LeftHandMiddle1
								{
									OFFSET 13.776489 0.000000 0.000000
									CHANNELS 3 Xrotation Yrotation Zrotation
									JOINT LeftHandMiddle2
									{
										OFFSET 3.438232 0.000000 0.000000
										CHANNELS 3 Xrotation Yrotation Zrotation
										JOINT LeftHandMiddle3
										{
											OFFSET 3.691551 0.000000 0.000000
											CHANNELS 3 Xrotation Yrotation Zrotation
											End Site
											{
												OFFSET -1.082298 3.499527 0.457670
											}
										}
									}
								}
								JOINT LeftHandRing1
								{
									OFFSET 13.966164 -0.268127 -3.067488
									CHANNELS 3 Xrotation Yrotation Zrotation
									JOINT LeftHandRing2
									{
										OFFSET 3.162567 0.000000 0.000000
										CHANNELS 3 Xrotation Yrotation Zrotation
										JOINT LeftHandRing3
										{
											OFFSET 3.324348 0.000000 0.000000
											CHANNELS 3 Xrotation Yrotation Zrotation
											End Site
											{
												OFFSET -0.861900 3.184998 0.405154
											}
										}
									}
								}
								JOINT LeftHandPinky1
								{
									OFFSET 13.131393 -0.168503 -5.746925
									CHANNELS 3 Xrotation Yrotation Zrotation
									JOINT LeftHandPinky2
									{
										OFFSET 2.849182 0.000000 0.000000
										CHANNELS 3 Xrotation Yrotation Zrotation
										JOINT LeftHandPinky3
										{
											OFFSET 2.805038 0.000000 0.000000
											CHANNELS 3 Xrotation Yrotation Zrotation
											End Site
											{
												OFFSET -0.882500 2.642609 0.325652
											}
										}
									}
								}
							}
							JOINT Left_Sleeve
							{
								OFFSET 6.592125 -0.646545 0.805568
								CHANNELS 3 Xrotation Yrotation Zrotation
								End Site
								{
									OFFSET -0.000179 20.275787 -0.000000
								}
							}
						}
					}
				}
				JOINT RightShoulder
				{
					OFFSET -5.731700 15.108002 -2.763700
					CHANNELS 3 Xrotation Yrotation Zrotation
					JOINT RightArm
					{
						OFFSET -9.825497 2.506317 -1.597400
						CHANNELS 3 Xrotation Yrotation Zrotation
						JOINT RightForeArm
						{
							OFFSET -21.966242 0.000000 0.000000
							CHANNELS 3 Xrotation Yrotation Zrotation
							JOINT RightHand
							{
								OFFSET -33.879032 0.000000 0.000000
								CHANNELS 3 Xrotation Yrotation Zrotation
								JOINT RightHandThumb1
								{
									OFFSET -6.715286 -2.359680 3.363841
									CHANNELS 3 Xrotation Yrotation Zrotation
									JOINT RightHandThumb2
									{
										OFFSET -2.507072 -1.447464 1.447461
										CHANNELS 3 Xrotation Yrotation Zrotation
										JOINT RightHandThumb3
										{
											OFFSET -2.898338 -1.673355 1.673357
											CHANNELS 3 Xrotation Yrotation Zrotation
											End Site
											{
												OFFSET 0.295959 3.727692 -0.131651
											}
										}
									}
								}
								JOINT RightHandIndex1
								{
									OFFSET -14.190811 -0.254547 3.840278
									CHANNELS 3 Xrotation Yrotation Zrotation
									JOINT RightHandIndex2
									{
										OFFSET -3.551727 0.000000 -0.000000
										CHANNELS 3 Xrotation Yrotation Zrotation
										JOINT RightHandIndex3
										{
											OFFSET -2.894196 0.000000 0.000000
											CHANNELS 3 Xrotation Yrotation Zrotation
											End Site
											{
												OFFSET 1.000603 2.690872 0.366626
											}
										}
									}
								}
								JOINT RightHandMiddle1
								{
									OFFSET -13.776489 0.000000 0.000000
									CHANNELS 3 Xrotation Yrotation Zrotation
									JOINT RightHandMiddle2
									{
										OFFSET -3.438232 0.000000 0.000000
										CHANNELS 3 Xrotation Yrotation Zrotation
										JOINT RightHandMiddle3
										{
											OFFSET -3.691551 0.000000 0.000000
											CHANNELS 3 Xrotation Yrotation Zrotation
											End Site
											{
												OFFSET 1.082298 3.499527 0.457670
											}
										}
									}
								}
								JOINT RightHandRing1
								{
									OFFSET -13.966164 -0.268127 -3.067488
									CHANNELS 3 Xrotation Yrotation Zrotation
									JOINT RightHandRing2
									{
										OFFSET -3.162567 0.000000 0.000000
										CHANNELS 3 Xrotation Yrotation Zrotation
										JOINT RightHandRing3
										{
											OFFSET -3.324348 0.000000 0.000000
											CHANNELS 3 Xrotation Yrotation Zrotation
											End Site
											{
												OFFSET 0.861900 3.184998 0.405154
											}
										}
									}
								}
								JOINT RightHandPinky1
								{
									OFFSET -13.131393 -0.168503 -5.746925
									CHANNELS 3 Xrotation Yrotation Zrotation
									JOINT RightHandPinky2
									{
										OFFSET -2.849182 0.000000 0.000000
										CHANNELS 3 Xrotation Yrotation Zrotation
										JOINT RightHandPinky3
										{
											OFFSET -2.805038 0.000000 0.000000
											CHANNELS 3 Xrotation Yrotation Zrotation
											End Site
											{
												OFFSET 0.882500 2.642609 0.325652
											}
										}
									}
								}
							}
							JOINT Right_Sleeve
							{
								OFFSET -6.592125 -0.646545 0.805568
								CHANNELS 3 Xrotation Yrotation Zrotation
								End Site
								{
									OFFSET 0.000179 20.275787 -0.000000
								}
							}
						}
					}
				}
				JOINT Bind_Right_JacketString
				{
					OFFSET -3.534800 11.969597 7.200700
					CHANNELS 3 Xrotation Yrotation Zrotation
					JOINT Bind_Right_JacketString1
					{
						OFFSET -0.319900 -6.102600 2.794100
						CHANNELS 3 Xrotation Yrotation Zrotation
						End Site
						{
							OFFSET 0.000000 6.719452 0.000000
						}
					}
				}
				JOINT Bind_Left_JacketString
				{
					OFFSET 2.904800 11.969597 7.200700
					CHANNELS 3 Xrotation Yrotation Zrotation
					JOINT Bind_Left_JacketString1
					{
						OFFSET 0.364800 -5.904503 3.186800
						CHANNELS 3 Xrotation Yrotation Zrotation
						End Site
						{
							OFFSET 0.000000 6.719513 0.000000
						}
					}
				}
				JOINT HairE
				{
					OFFSET 5.915200 17.612701 -11.592200
					CHANNELS 3 Xrotation Yrotation Zrotation
					JOINT HairE1
					{
						OFFSET 0.289200 -7.171898 -1.284500
						CHANNELS 3 Xrotation Yrotation Zrotation
						End Site
						{
							OFFSET 0.000000 7.291756 0.000000
						}
					}
				}
				JOINT HairF
				{
					OFFSET -0.864800 17.612701 -11.592200
					CHANNELS 3 Xrotation Yrotation Zrotation
					JOINT HairF1
					{
						OFFSET 0.000000 -14.087097 -2.127501
						CHANNELS 3 Xrotation Yrotation Zrotation
						End Site
						{
							OFFSET 0.000000 14.246841 0.000000
						}
					}
				}
				JOINT HairG
				{
					OFFSET -8.087700 17.612701 -11.592200
					CHANNELS 3 Xrotation Yrotation Zrotation
					JOINT HairG1
					{
						OFFSET -0.293600 -6.081398 -0.910100
						CHANNELS 3 Xrotation Yrotation Zrotation
						End Site
						{
							OFFSET 0.000000 6.156120 0.000000
						}
					}
				}
			}
		}
	}
	JOINT Pouch
	{
		OFFSET 0.000000 4.394501 10.847300
		CHANNELS 3 Xrotation Yrotation Zrotation
		End Site
		{
			OFFSET 0.000000 21.880577 0.000000
		}
	}
	JOINT Bag
	{
		OFFSET -13.229000 4.813004 -0.593300
		CHANNELS 3 Xrotation Yrotation Zrotation
		End Site
		{
			OFFSET 0.000000 21.880577 0.000000
		}
	}
	JOINT OccupyGuyFacialAnim_Joint
	{
		OFFSET 1.000000 -70.206398 -1.655000
		CHANNELS 3 Xrotation Yrotation Zrotation
		End Site
		{
			OFFSET 0.000000 21.880577 0.000000
		}
	}
}
MOTION
Frames: 4
Frame Time: 0.016667
-0.906114 41.969292 -0.344572 0.366719 -175.407263 -9.345963 -0.000000 0.000000 0.000001 -77.477049 -10.333920 14.065882 115.463911 8.807198 3.323103 -35.581024 4.474982 -11.568991 0.000000 0.000000 -0.000000 -0.000000 0.000000 0.000001 -59.329004 8.797637 -24.140747 106.706024 -0.018145 -0.750055 -30.864966 -8.927363 26.127973 0.000000 0.000000 0.000000 -0.000003 0.000000 -0.000000 3.973684 3.698489 -1.879796 8.138439 6.853469 -4.615295 8.138444 6.853474 -4.615309 -3.924081 28.385132 6.948705 6.044266 35.632711 -22.310171 0.000000 -0.000000 -0.000000 0.000000 -0.000000 -0.000000 0.000000 -0.000000 -0.000000 0.000000 -0.000000 -0.000000 0.000002 0.000000 0.000000 0.000000 -0.000000 -0.000000 0.000002 0.000000 0.000000 0.000000 -0.000000 -0.000000 0.000000 -0.000000 -0.000000 0.991957 -15.521566 -11.873506 2.947332 -1.004909 -32.103781 39.921906 -32.872591 -2.089490 12.741848 10.294077 2.732606 -10.171801 -9.655293 9.007734 2.321135 6.714508 2.170918 0.000000 -0.000000 0.000001 -0.823915 -6.584352 -6.418252 -0.126823 0.207653 -21.714385 -0.000002 0.000000 -0.000000 1.294503 -1.113041 -9.321279 -0.178458 -0.773451 -14.430113 0.000003 0.000001 -0.000001 -0.565319 2.847725 -6.302105 -0.505475 -2.597474 -30.199514 0.000003 0.000003 -0.000002 -0.248805 5.894621 -1.054396 -0.699251 -5.770487 -39.699320 -0.000002 -0.000001 -0.000001 0.000002 -0.000000 -0.000000 3.297409 -18.314893 12.160858 12.768046 -13.236293 60.187074 30.213123 39.380152 -4.024330 19.052427 -1.510654 11.776116 -7.035196 1.739460 -10.279214 -0.642366 -0.093871 -1.289329 0.000001 0.000000 -0.000000 -3.340358 2.507655 5.478412 0.120540 -1.119633 16.859793 0.000003 -0.000000 0.000000 -0.189041 -1.324966 0.979403 -0.357898 1.142256 22.116009 0.000006 -0.000000 -0.000003 1.946045 0.242697 1.015177 -0.619906 3.110098 28.344745 0.000004 0.000000 -0.000003 4.839318 -1.854579 -3.962225 -1.320415 7.677256 37.620197 0.000001 0.000001 -0.000001 -0.000000 -0.000001 -0.000001 -0.000001 0.000000 -0.000000 -0.000001 0.000000 -0.000000 -0.000001 0.000000 0.000001 -0.000001 0.000000 0.000001 -0.000001 0.000000 -0.000000 -0.000001 0.000000 -0.000000 -0.000001 0.000000 0.000001 -0.000001 0.000000 0.000001 -0.000001 0.000000 -0.000000 -0.000001 0.000000 -0.000000 -0.000000 0.000000 0.000001 -0.000000 0.000000 0.000001 -0.000000 0.000000 0.000001 
-0.908757 41.970390 -0.346340 0.336247 -175.393302 -9.361880 0.000000 -0.000000 0.000001 -77.510332 -10.344882 14.048564 115.463446 8.810233 3.322768 -35.580491 4.473334 -11.563521 -0.000000 0.000000 0.000000 -0.000001 -0.000000 -0.000000 -59.338914 8.788544 -24.140578 106.698900 -0.030064 -0.746135 -30.868944 -8.929670 26.129913 0.000000 -0.000002 -0.000000 -0.000000 -0.000001 -0.000000 3.962107 3.698883 -1.877736 8.115213 6.854066 -4.611593 8.115213 6.854068 -4.611585 -3.893998 28.384583 6.949292 6.058524 35.625935 -22.329900 -0.000001 -0.000000 0.000000 -0.000001 -0.000000 0.000000 -0.000001 -0.000000 0.000000 -0.000001 -0.000000 0.000000 0.000000 0.000000 -0.000000 -0.000001 -0.000000 0.000000 0.000000 0.000000 -0.000000 -0.000001 -0.000000 0.000000 -0.000001 -0.000000 0.000000 0.983012 -15.541327 -11.895337 2.965896 -0.975599 -32.060908 39.955579 -32.910597 -2.104577 12.745290 10.287327 2.740134 -10.172276 -9.653922 9.008287 2.321135 6.714507 2.170918 0.000001 -0.000000 -0.000001 -0.828605 -6.612132 -6.414594 -0.126824 0.207652 -21.714389 0.000000 0.000001 -0.000002 1.294503 -1.113001 -9.320928 -0.178460 -0.773451 -14.430115 0.000003 0.000001 0.000001 -0.564475 2.847566 -6.300950 -0.505483 -2.597474 -30.199514 -0.000001 0.000003 -0.000000 -0.248476 5.894461 -1.053947 -0.699249 -5.770486 -39.699320 -0.000002 -0.000001 -0.000002 0.000002 -0.000000 0.000000 3.299774 -18.345000 12.110442 12.768935 -13.198103 60.241394 30.218242 39.297599 -4.016843 19.086219 -1.501097 11.733840 -7.041333 1.762648 -10.274683 -0.642367 -0.093876 -1.289327 -0.000003 -0.000001 0.000000 -3.280148 2.555630 5.448242 0.120539 -1.119631 16.859798 -0.000001 0.000001 0.000000 -0.085923 -1.307458 0.995308 -0.357900 1.142257 22.116007 0.000002 -0.000002 0.000001 1.946342 0.242909 1.016100 -0.619904 3.110099 28.344742 0.000001 -0.000000 0.000001 4.839146 -1.854383 -3.961737 -1.320411 7.677258 37.620200 0.000002 0.000000 -0.000001 0.000001 0.000000 0.000000 -0.000003 -0.000001 0.000002 -0.000001 0.000000 -0.000001 -0.000003 -0.000001 0.000001 -0.000003 -0.000001 0.000001 -0.000003 -0.000001 0.000002 -0.000001 0.000000 -0.000000 -0.000003 -0.000001 0.000001 -0.000003 -0.000001 0.000001 -0.000003 -0.000001 0.000002 -0.000001 0.000000 -0.000000 0.000000 -0.000000 0.000001 0.000000 -0.000000 0.000001 0.000000 -0.000000 0.000001 
-0.907701 41.970924 -0.349352 0.311261 -175.397783 -9.372731 -0.000000 0.000000 0.000000 -77.534607 -10.347348 14.067172 115.465304 8.795734 3.321611 -35.587113 4.466939 -11.551685 0.000000 0.000000 -0.000000 -0.000000 -0.000000 -0.000000 -59.356892 8.785924 -24.121117 106.700355 -0.043490 -0.741999 -30.879295 -8.931744 26.129174 0.000000 -0.000000 -0.000000 -0.000000 0.000000 -0.000000 3.951224 3.698841 -1.879517 8.093580 6.853826 -4.615531 8.093584 6.853824 -4.615526 -3.941494 28.376349 6.975595 6.129567 35.633305 -22.332413 -0.000000 0.000000 -0.000000 -0.000000 0.000000 -0.000000 -0.000000 0.000000 -0.000000 -0.000000 0.000000 -0.000000 -0.000000 0.000000 -0.000000 -0.000000 0.000000 -0.000000 -0.000000 0.000000 -0.000000 -0.000000 0.000000 -0.000000 -0.000000 0.000000 -0.000000 0.984351 -15.557356 -11.893250 2.993953 -0.936738 -32.027782 39.996970 -32.956018 -2.104868 12.752491 10.324101 2.750439 -10.172750 -9.652540 9.008916 2.321135 6.714507 2.170918 0.000001 0.000001 -0.000001 -0.833432 -6.640641 -6.410816 -0.126822 0.207654 -21.714389 0.000004 0.000001 -0.000000 1.294511 -1.112967 -9.320528 -0.178461 -0.773451 -14.430117 0.000002 -0.000001 0.000002 -0.563578 2.847401 -6.299813 -0.505481 -2.597477 -30.199511 -0.000002 0.000000 -0.000002 -0.248204 5.893922 -1.053437 -0.699249 -5.770487 -39.699320 -0.000000 -0.000001 0.000001 0.000002 -0.000000 0.000000 3.302530 -18.350053 12.097406 12.769791 -13.185350 60.268435 30.241325 39.257045 -4.029738 19.125786 -1.494303 11.725368 -7.048393 1.789089 -10.269482 -0.642367 -0.093875 -1.289330 0.000003 -0.000001 0.000000 -3.217552 2.602808 5.419804 0.120541 -1.119633 16.859794 -0.000001 -0.000000 0.000002 0.019106 -1.289077 1.011204 -0.357895 1.142256 22.116009 -0.000000 -0.000001 -0.000001 1.946581 0.243104 1.016864 -0.619908 3.110099 28.344742 0.000004 -0.000002 0.000000 4.838923 -1.854187 -3.961328 -1.320417 7.677262 37.620200 -0.000002 0.000001 0.000001 0.000002 -0.000001 -0.000002 -0.000000 0.000001 -0.000000 0.000000 0.000001 -0.000000 -0.000000 0.000001 -0.000000 -0.000000 0.000001 -0.000000 -0.000000 0.000001 -0.000000 0.000000 0.000001 -0.000000 -0.000000 0.000001 -0.000000 -0.000000 0.000001 -0.000000 -0.000000 0.000001 -0.000000 0.000000 0.000001 -0.000000 -0.000000 0.000000 0.000000 -0.000000 0.000000 0.000000 -0.000000 0.000000 0.000000 
-0.907836 41.968750 -0.352606 0.285621 -175.389955 -9.389103 0.000000 0.000000 -0.000000 -77.569420 -10.348903 14.087372 115.473487 8.770571 3.319668 -35.598143 4.452382 -11.524465 0.000000 -0.000000 0.000000 0.000001 -0.000000 0.000000 -59.375852 8.764874 -24.124279 106.704159 -0.048441 -0.740278 -30.890555 -8.930066 26.121876 0.000000 0.000001 -0.000000 0.000002 -0.000001 -0.000000 3.942023 3.698993 -1.877956 8.075134 6.853915 -4.612895 8.075139 6.853915 -4.612896 -3.925092 28.376649 6.958251 6.143553 35.639586 -22.329767 0.000000 0.000000 -0.000000 0.000000 0.000000 -0.000000 0.000000 0.000000 -0.000000 0.000000 0.000000 -0.000000 0.000002 -0.000000 -0.000000 0.000000 0.000000 -0.000000 0.000002 -0.000000 -0.000000 0.000000 0.000000 -0.000000 0.000000 0.000000 -0.000000 0.985478 -15.558940 -11.899331 3.003090 -0.913851 -31.997066 40.016548 -32.998222 -2.121982 12.751323 10.346645 2.756613 -10.173239 -9.651251 9.009513 2.321135 6.714510 2.170918 0.000004 0.000001 0.000000 -0.838437 -6.669854 -6.406887 -0.126820 0.207653 -21.714387 0.000003 0.000002 -0.000003 1.294499 -1.112937 -9.320129 -0.178463 -0.773452 -14.430115 0.000000 0.000001 -0.000003 -0.562650 2.847227 -6.298605 -0.505480 -2.597476 -30.199514 -0.000001 0.000001 0.000004 -0.247935 5.893318 -1.052754 -0.699253 -5.770486 -39.699317 -0.000000 -0.000001 0.000003 0.000004 0.000000 0.000000 3.306597 -18.371390 12.069626 12.769773 -13.150460 60.289212 30.289918 39.220261 -4.043906 19.162125 -1.502727 11.706706 -7.056314 1.818820 -10.263614 -0.642367 -0.093873 -1.289327 -0.000001 -0.000001 -0.000000 -3.152901 2.648911 5.393191 0.120544 -1.119633 16.859798 -0.000001 -0.000000 0.000002 0.125419 -1.270052 1.027008 -0.357895 1.142255 22.116007 0.000002 -0.000002 -0.000001 1.946790 0.243271 1.017457 -0.619910 3.110091 28.344742 -0.000003 -0.000000 -0.000002 4.838695 -1.853947 -3.961030 -1.320414 7.677256 37.620190 0.000001 -0.000001 0.000002 -0.000000 -0.000001 -0.000001 -0.000003 0.000002 0.000000 -0.000001 -0.000000 -0.000001 -0.000003 0.000002 0.000000 -0.000003 0.000002 0.000000 -0.000003 0.000002 0.000000 -0.000001 -0.000000 -0.000000 -0.000003 0.000002 0.000000 -0.000003 0.000002 0.000000 -0.000003 0.000002 0.000000 -0.000001 -0.000000 -0.000000 0.000000 0.000000 -0.000000 0.000000 0.000000 -0.000000 0.000000 0.000000 -0.000000 
